<svg width="44" height="44" fill="none" xmlns="http://www.w3.org/2000/svg"><circle cx="22" cy="22" r="22" fill="#E9F7FF"/><path d="M29.188 18.631v-2.668a.878.878 0 00-.875-.875.878.878 0 00-.875.875v1.925c-.307-.044-.57-.088-.875-.088h-9.1a5.39 5.39 0 00-.876.087v-2.625c0-.087 0-.175.044-.306v-.087c.131-2.888 2.494-5.119 5.381-5.119 1.97 0 3.807 1.094 4.77 2.844.218.437.743.569 1.18.35.438-.219.57-.744.35-1.182C27.044 9.444 24.637 8 22.012 8c-3.806 0-6.912 2.975-7.13 6.781-.044.175-.044.35-.044.525v3.369A4.43 4.43 0 0013 22.262v4.594c0 .175 0 .394.044.613.262 4.812 4.2 8.531 8.968 8.531 4.813 0 8.75-3.763 8.97-8.531.043-.219.043-.438.043-.613v-4.594c.044-1.487-.7-2.8-1.837-3.63zm-2.625.919c1.356 0 2.493 1.006 2.712 2.319-.481-.438-1.006-.788-1.662-1.006-.307-.088-.613.087-.744.393-.088.306.087.613.393.744 1.094.35 1.925 1.313 2.057 2.45v2.45c0 .131 0 .263-.044.394v.087a7.402 7.402 0 01-.525 2.407 7.258 7.258 0 01-6.738 4.462 7.304 7.304 0 01-6.737-4.462 7.158 7.158 0 01-.525-2.407v-2.975a2.89 2.89 0 012.887-2.537h6.825a.58.58 0 00.57-.569.58.58 0 00-.57-.569h-6.825c-1.093 0-2.1.438-2.843 1.181.218-1.312 1.356-2.318 2.712-2.318h9.056v-.044z" fill="#3CB8FF"/><path d="M22.625 28.606V26.55a.58.58 0 00-.569-.569.58.58 0 00-.568.569v2.056c-.657.219-1.138.875-1.138 1.619 0 .962.744 1.706 1.706 1.706.963 0 1.707-.744 1.707-1.706-.044-.788-.525-1.4-1.138-1.619z" fill="#3CB8FF"/></svg>