<svg width="44" height="44" fill="none" xmlns="http://www.w3.org/2000/svg"><circle cx="22" cy="22" r="22" fill="#E9EEF9"/><path d="M32.516 24.165c-1.918 5.075-6.587 9.637-9.647 11.56a.903.903 0 01-.927.025c-3.468-1.947-8.52-6.964-10.21-11.585-1.599-4.372-1.722-7.922-1.731-10.372a.993.993 0 01.71-.955c1.792-.535 4.734-1.405 5.64-1.807.715-.318 2.52-1.247 4.125-2.062 1.204-.611 2.636-.55 3.847.05 1.3.646 2.82 1.347 4.151 2.012 1.663.831 3.744 1.471 5.076 1.818.482.125.818.57.802 1.068-.07 2.147-.08 5.599-1.836 10.248z" stroke="#4062CE" stroke-width="1.4"/><path d="M23 31.835c2.237-1.237 5.968-4.643 7.456-8.454 1.226-3.142 1.299-5.519 1.346-7.065.016-.5-.327-.95-.812-1.076-.981-.258-2.381-.69-3.517-1.24" stroke="#4062CE" stroke-width="1.1"/><circle cx="22.412" cy="21.134" r="4.785" stroke="#4062CE" stroke-width="1.4"/><path fill-rule="evenodd" clip-rule="evenodd" d="M24.987 20.782a1.588 1.588 0 11-2.22-2.223 2.598 2.598 0 102.22 2.223z" fill="#4062CE"/></svg>