<svg width="44" height="44" fill="none" xmlns="http://www.w3.org/2000/svg"><circle cx="22" cy="22" r="22" fill="#EFF9E9"/><rect x="9.7" y="13.7" width="24.6" height="5.6" rx="1.3" stroke="#6ACE40" stroke-width="1.4"/><path d="M12.5 19.5v4m19-4v4" stroke="#6ACE40" stroke-width="1.5"/><circle cx="31" cy="16.5" r="1" fill="#6ACE40"/><circle cx="27" cy="16.5" r="1" fill="#6ACE40"/><path d="M12.5 17a.5.5 0 01.5-.5h5a.5.5 0 01.5.5v2.5h-6V17z" stroke="#6ACE40"/><rect x="9.7" y="23.7" width="24.6" height="5.6" rx="1.3" stroke="#6ACE40" stroke-width="1.4"/><circle cx="31" cy="26.5" r="1" fill="#6ACE40"/><circle cx="27" cy="26.5" r="1" fill="#6ACE40"/><path d="M12.5 27a.5.5 0 01.5-.5h5a.5.5 0 01.5.5v2.5h-6V27z" stroke="#6ACE40"/><path d="M24.5 11H27m-4.5 0H13a1 1 0 00-1 1v1.5h20V12a1 1 0 00-1-1h-1.5" stroke="#6ACE40" stroke-width="1.4" stroke-linecap="round"/><path d="M31.25 32.402a.25.25 0 01-.25.25H13a.25.25 0 01-.25-.25V29.75h18.5v2.652z" stroke="#6ACE40" stroke-width="1.5"/></svg>