<svg width="44" height="44" fill="none" xmlns="http://www.w3.org/2000/svg"><circle cx="22" cy="22" r="22" fill="#FFF3E6"/><path d="M24.484 31.063H21.32v-1.407a.784.784 0 00-.78-.781.784.784 0 00-.782.781v1.407h-3.164a.784.784 0 00-.782.78c0 .43.352.782.782.782h7.89c.43 0 .782-.352.782-.781a.784.784 0 00-.782-.782zM31.438 12H9.563C8.703 12 8 12.703 8 13.563v12.695c0 .86.703 1.562 1.563 1.562h21.874c.86 0 1.563-.703 1.563-1.562V13.563c0-.86-.703-1.563-1.563-1.563zM9.563 26.258v-1.133h15.039a.517.517 0 00.507-.508.517.517 0 00-.507-.508H9.562V13.562h21.876V24.07h-3.672a.517.517 0 00-.508.508c0 .274.234.508.508.508h3.672v1.133H9.563v.039z" fill="#FF9921"/><path fill="#FFF3E6" d="M26 18h10v15H26z"/><path d="M35.006 19h-7.131a.878.878 0 00-.875.875v12.25c0 .481.394.875.875.875h7.131a.878.878 0 00.875-.875v-12.25a.878.878 0 00-.875-.875zm0 13.125h-7.131v-12.25h7.131v12.25z" fill="#FF9921"/><path d="M31.44 30.244a.635.635 0 10.001 1.27.635.635 0 000-1.27zm-2.602-2.078a.29.29 0 00.284-.285v-5.6h4.616v.963a.29.29 0 00.284.284.29.29 0 00.284-.284v-1.247a.29.29 0 00-.284-.285h-5.184a.29.29 0 00-.285.285v5.884a.29.29 0 00.285.285zm0 1.334h5.184a.29.29 0 00.284-.284v-4.572a.29.29 0 00-.284-.285.29.29 0 00-.284.285v4.265h-4.9a.29.29 0 00-.285.285c0 .175.131.306.285.306zm1.706-8.422h1.771a.29.29 0 00.285-.284.29.29 0 00-.285-.285h-1.771a.29.29 0 00-.285.285.29.29 0 00.285.284z" fill="#FF9921"/></svg>