<svg width="44" height="44" fill="none" xmlns="http://www.w3.org/2000/svg"><circle cx="22" cy="22" r="22" fill="#F1EDFC"/><path d="M34.325 31.498L32.426 16.48a1.721 1.721 0 00-1.687-1.477h-2.911v-1.73c0-2.91-2.32-5.273-5.231-5.273-2.869 0-5.232 2.363-5.232 5.273v1.73h-2.91c-.844 0-1.561.633-1.688 1.477L10.87 31.498v1.815c0 .928.759 1.687 1.687 1.687h20.081c.928 0 1.688-.76 1.688-1.688V31.5zM19.053 13.273c0-1.982 1.603-3.585 3.544-3.585 1.94 0 3.543 1.603 3.543 3.585v1.73h-7.087v-1.73zm-6.497 20.04v-1.14h14.428a.558.558 0 00.549-.548.558.558 0 00-.549-.548H12.64l1.815-14.344h2.91v1.181c-1.18.38-2.024 1.434-2.024 2.742a2.872 2.872 0 002.868 2.869c.338 0 .675-.042.97-.169a.582.582 0 00.338-.717.582.582 0 00-.717-.337c-.211.084-.38.084-.59.084-.971 0-1.73-.76-1.73-1.73 0-.633.337-1.223.886-1.518v1.518c0 .464.38.844.843.844.464 0 .844-.38.844-.844v-1.518c.506.295.886.843.886 1.518 0 .296.253.549.548.549a.558.558 0 00.549-.549c0-1.265-.844-2.362-2.025-2.742v-1.181h7.087v1.181c-1.18.38-2.025 1.434-2.025 2.742a2.872 2.872 0 002.87 2.869c.337 0 .674-.042.97-.169a.582.582 0 00.337-.717.582.582 0 00-.717-.337c-.211.084-.38.084-.59.084-.971 0-1.73-.76-1.73-1.73 0-.633.337-1.223.885-1.518v1.518c0 .464.38.844.844.844.464 0 .844-.38.844-.844v-1.518c.506.295.886.843.886 1.518 0 .296.253.549.548.549a.559.559 0 00.549-.549c0-1.265-.844-2.362-2.025-2.742v-1.181h2.91l1.815 14.344h-2.574a.558.558 0 00-.548.548c0 .295.253.548.548.548h2.658v1.14H12.556z" fill="#8155E1"/></svg>