<svg width="20" height="20" viewBox="0 0 20 20" fill="none" xmlns="http://www.w3.org/2000/svg">
<path d="M13.688 12.7238C13.32 12.7238 13.016 12.4283 13.016 12.061C13.016 11.6936 13.32 11.4061 13.688 11.4061C14.056 11.4061 14.36 11.6936 14.36 12.061C14.36 12.4283 14.056 12.7238 13.688 12.7238ZM6.328 12.7238C5.96 12.7238 5.656 12.4283 5.656 12.061C5.656 11.6936 5.96 11.4061 6.328 11.4061C6.696 11.4061 6.992 11.6936 6.992 12.061C6.992 12.4283 6.696 12.7238 6.328 12.7238ZM13.928 8.7226L15.264 6.42248C15.336 6.28671 15.288 6.11899 15.16 6.04712C15.024 5.96725 14.856 6.01517 14.8 6.15094L13.432 8.47502C12.3553 7.98323 11.184 7.73245 10 7.74026C8.776 7.74026 7.6 8.00381 6.584 8.46703L5.232 6.14295C5.21503 6.11061 5.19159 6.0821 5.16313 6.05917C5.13467 6.03624 5.1018 6.01939 5.06655 6.00965C5.0313 5.99992 4.99443 5.99751 4.95821 6.00258C4.92199 6.00765 4.88721 6.02009 4.856 6.03913C4.72 6.11101 4.68 6.27872 4.752 6.41449L6.08 8.71461C3.8 9.96051 2.232 12.2686 2 15H18C17.776 12.2766 16.216 9.96849 13.928 8.7226Z" fill="#2C3A47"/>
</svg>
