<svg width="20" height="20" viewBox="0 0 20 20" fill="none" xmlns="http://www.w3.org/2000/svg">
<path fill-rule="evenodd" clip-rule="evenodd" d="M12.8621 2C12.9626 2.92759 12.6873 3.85675 12.0975 4.58096C11.524 5.38378 10.5941 5.85741 9.60569 5.85011C9.52931 4.93173 9.82164 4.02068 10.4185 3.31714C11.028 2.57516 11.9058 2.10205 12.8621 2ZM15.6952 15.6566C16.1303 15.0616 16.4895 14.4149 16.7646 13.7315C15.4597 13.2563 14.5565 12.0608 14.4583 10.6788C14.3602 9.29686 15.0854 7.98634 16.3101 7.33243C15.5605 6.37559 14.4303 5.7916 13.2141 5.73267C12.4514 5.73267 11.9363 5.93658 11.4584 6.12574C11.0451 6.28934 10.6597 6.4419 10.1662 6.4419C9.6574 6.4419 9.21705 6.27973 8.75747 6.11049C8.25594 5.92579 7.7315 5.73267 7.07019 5.73267C5.68424 5.81457 4.42973 6.57801 3.72286 7.7697C2.55717 9.59344 2.76036 12.9316 4.63188 15.8219C5.29493 16.8351 6.2093 17.9976 7.37498 17.9976C7.8843 18.0204 8.21776 17.8703 8.58099 17.7068C8.98045 17.527 9.41591 17.331 10.1609 17.331C10.9227 17.331 11.3485 17.5191 11.7441 17.6939C12.0871 17.8454 12.4073 17.9869 12.904 17.9869C14.091 17.9869 15.0375 16.6698 15.6952 15.6566Z" fill="#2C3A47"/>
</svg>
