<svg width="20" height="20" viewBox="0 0 20 20" fill="none" xmlns="http://www.w3.org/2000/svg">
<path fill-rule="evenodd" clip-rule="evenodd" d="M9.99998 2C5.58851 2 2 5.58851 2 9.99998C2 14.4114 5.58851 18 9.99998 18C14.4114 18 18 14.4114 18 9.99998C18 5.58851 14.4114 2 9.99998 2ZM4.10187 5.70921L6.53801 9.67863C6.70079 7.91099 8.19057 6.52171 9.99995 6.52171H16.4218C16.5439 6.74641 16.6522 6.97945 16.7506 7.21736H12.0781C12.9261 7.85214 13.4782 8.86153 13.4782 9.99996C13.4782 10.6215 13.312 11.2045 13.0251 11.7099C13.0244 11.7112 13.024 11.7126 13.0236 11.7139C13.0233 11.7149 13.0231 11.7159 13.0229 11.7169C13.0224 11.7196 13.0218 11.7223 13.0203 11.7248L9.83895 17.2961C9.57912 17.2902 9.32313 17.2704 9.07061 17.2384L11.3831 13.1902C10.9588 13.3749 10.4914 13.4782 9.99995 13.4782C8.76204 13.4782 7.67609 12.8258 7.05974 11.8491C7.05665 11.8452 7.05333 11.8417 7.05002 11.8381L7.05001 11.8381C7.04477 11.8324 7.03955 11.8268 7.03529 11.8199L3.68068 6.35323C3.80972 6.13028 3.95057 5.91617 4.10187 5.70921ZM7.2176 9.99996C7.2176 8.46317 8.46341 7.21736 10.0002 7.21736C11.537 7.21736 12.7828 8.46317 12.7828 9.99996C12.7828 11.5368 11.537 12.7826 10.0002 12.7826C8.46341 12.7826 7.2176 11.5368 7.2176 9.99996Z" fill="#2C3A47"/>
</svg>
