<svg width="20" height="20" viewBox="0 0 20 20" fill="none" xmlns="http://www.w3.org/2000/svg">
<path fill-rule="evenodd" clip-rule="evenodd" d="M5.5674 5.23047C4.95275 5.46685 4.35393 5.80697 3.84766 6.25669C5.36794 3.13311 8.59571 1.6589 11.6848 2.06652L11.6861 2.06668L11.6873 2.06684C11.8388 2.08574 11.9841 2.10813 12.1319 2.13765L12.1331 2.13788L12.1343 2.13811C13.8101 2.46112 15.0223 3.22504 15.8928 4.0719V4.07413L15.9955 4.17771C17.0992 5.29096 17.6218 6.52398 17.8055 7.04773C18.1392 8.00235 18.3533 9.62621 17.1934 10.7913L17.1932 10.7914C16.2174 11.7728 14.9701 11.8145 14.0387 11.7642L14.0372 11.7641C13.1698 11.721 12.7633 11.478 12.3535 11.2251C12.3179 11.203 12.295 11.1846 12.2807 11.1713C12.2951 11.1519 12.31 11.1329 12.3253 11.1142C12.3931 11.0313 12.5123 10.8836 12.7236 10.5161L12.7243 10.5148C12.8664 10.2653 12.9643 9.94843 12.9835 9.60809C12.997 9.41452 12.9838 9.20957 12.9399 9.00498C12.9385 8.99636 12.9371 8.98896 12.9358 8.98297L12.9335 8.97299C12.8234 8.34098 12.5081 7.55225 11.9787 6.93316C11.4833 6.34944 10.9336 5.80032 10.1343 5.39482C9.6996 5.17357 9.19758 4.99766 8.59847 4.88135L8.59752 4.88116C7.717 4.71268 6.59899 4.83373 5.5674 5.23047ZM6.34871 17.0185C3.92506 15.6632 2.1054 12.809 2.26347 9.70375C2.26077 9.76047 2.25876 9.81709 2.25743 9.87359C2.3208 9.29931 2.46734 8.6775 2.81587 8.07153C3.87335 6.22195 6.47149 5.47736 8.08344 5.78628C8.65376 5.89718 9.12507 6.06352 9.52905 6.26948C10.2697 6.64573 10.7845 7.15664 11.2678 7.72696C11.7549 8.29729 12.0479 9.03395 12.147 9.61616C12.0494 9.18973 11.7918 8.76052 11.2915 8.43196C10.3915 7.84577 9.42847 8.08516 8.81538 8.66138C7.2731 9.74554 6.30136 11.5137 6.64654 13.5965C7.05448 16.0402 8.74168 17.3908 9.9655 17.6284C10.7005 17.7715 11.3789 17.9033 12.222 17.7543C9.79846 18.3867 7.51946 17.6742 6.34871 17.0185ZM12.1487 9.62343L12.1508 9.63316C12.1505 9.63002 12.1496 9.62695 12.1489 9.62421L12.1487 9.62343ZM8.20585 9.92111C7.47996 10.8702 7.11887 12.0688 7.34014 13.4043C7.72586 15.7143 9.31054 16.9379 10.3754 17.1446H10.3756C11.1238 17.2903 11.7507 17.4094 12.5378 17.263L12.5425 17.2618C12.5487 17.2602 12.5545 17.2589 12.5596 17.2578C12.5626 17.2571 12.5654 17.2566 12.5678 17.2561C13.9921 16.865 15.4792 15.9817 16.8085 14.2577C16.8197 14.2416 16.8302 14.2263 16.84 14.2117C16.7922 14.2327 16.7378 14.2576 16.6746 14.2864L16.6463 14.2993L16.6462 14.2994L16.6236 14.3097C16.4758 14.3772 16.2943 14.4597 16.0728 14.5521L16.0709 14.5528C15.5814 14.754 14.9104 14.8581 14.2363 14.8741C13.5588 14.8901 12.8402 14.8177 12.2485 14.6397C11.1246 14.3018 9.38082 13.6907 8.44756 11.3491C8.33253 11.0604 8.21544 10.6055 8.2045 10.1141C8.20309 10.0509 8.20343 9.98646 8.20585 9.92111Z" fill="#2C3A47"/>
</svg>
