<svg width="20" height="20" viewBox="0 0 20 20" fill="none" xmlns="http://www.w3.org/2000/svg">
<path fill-rule="evenodd" clip-rule="evenodd" d="M4.52866 4.53005C5.9299 2.97396 7.92196 2 10.1283 2C11.9174 2 13.5676 2.64012 14.8738 3.7116C14.8867 3.72154 14.8988 3.73244 14.9102 3.7442C15.0335 3.81691 15.151 3.89033 15.2553 3.96223C15.5019 4.14515 15.7127 4.34479 15.892 4.55518C15.9163 4.51553 15.9487 4.48075 15.989 4.45397C16.0417 4.41885 16.1009 4.40168 16.1609 4.40168C16.2429 4.40168 16.3245 4.43415 16.3861 4.49744C17.1135 5.24616 17.4164 6.56151 17.543 7.51992H17.5476C17.6959 7.51992 17.8251 7.62947 17.8595 7.78005L17.8605 7.78481C17.8959 7.94219 17.9998 8.40359 18.0001 9.03591C18.0001 9.97658 17.5551 12.2056 16.3607 14.1836C15.3104 15.9245 13.3528 18.0001 9.99483 18.0001C4.85814 18.0001 2.1224 13.5572 2.1224 10.3502C2.1224 9.84941 2.18958 9.39515 2.26758 9.03523C2.21525 9.02027 2.166 8.99139 2.125 8.94897C2.03267 8.85333 2 8.71672 2 8.4253C2.00067 8.01078 2.14457 7.55003 2.86524 6.45356C2.86157 5.98966 2.90646 4.26572 3.7448 3.3C3.80613 3.22871 3.89278 3.18997 3.98178 3.18997C4.01245 3.18997 4.0439 3.19484 4.07423 3.20423C4.19256 3.24179 4.27987 3.34627 4.29754 3.4732V3.47524C4.29654 3.47663 4.29592 3.47792 4.29558 3.47931C4.3644 3.9268 4.4473 4.2647 4.52866 4.53005ZM12.2608 3.04606C11.5879 2.8222 10.8728 2.69559 10.128 2.69559C8.00934 2.69559 6.11369 3.67311 4.82715 5.21952L4.81933 5.22835C4.84461 5.26757 4.86751 5.29899 4.86751 5.29899C4.86751 5.29899 5.32644 5.05448 6.00944 5.05448C6.38678 5.05448 6.64161 5.18217 6.64161 5.18217C6.64161 5.18217 7.82354 4.10834 8.70021 4.10834C7.62987 5.11857 7.54851 5.84168 7.54851 5.84168C7.54851 5.84168 7.86861 6.21963 8.05828 6.39455C8.08537 6.41958 8.11012 6.44299 8.1333 6.46492C8.33694 6.65757 8.41923 6.73542 8.89357 6.77695C9.17757 6.80164 9.35256 6.80887 9.35256 6.80887C9.35256 6.80887 9.47495 6.83867 9.47495 6.95829C9.47495 7.0967 9.33256 7.33943 9.19956 7.43646C9.19022 7.4433 9.16943 7.4576 9.13983 7.47796C8.94236 7.61377 8.35298 8.01912 8.15789 8.27799C8.16202 8.28665 8.168 8.29834 8.17542 8.31286C8.25715 8.47283 8.51423 8.97598 8.41766 9.53996C8.36684 9.53766 8.26039 9.51401 8.10817 9.48021C7.91592 9.43751 7.65068 9.37861 7.33237 9.32601C6.89736 9.39382 6.87533 9.81815 6.87533 9.94613C6.90267 10.0466 7.84218 11.2645 8.61818 11.2645C8.99907 11.2645 9.20067 11.123 9.40295 10.981C9.6066 10.838 9.81093 10.6946 10.1996 10.6946C10.8746 10.6946 11.3343 11.2715 11.3343 11.5063C11.3343 11.6346 11.2253 11.7182 11.1273 11.7318C11.1033 11.7352 11.0793 11.7377 11.0589 11.7318C10.9823 11.7102 10.922 11.6971 10.8643 11.6971C10.775 11.6971 10.6936 11.7297 10.5746 11.8187C10.5669 11.8245 10.5529 11.8372 10.5326 11.8556C10.3426 12.028 9.60426 12.6983 8.40724 12.7913C8.31491 12.7983 8.22039 12.8025 8.12339 12.8022C8.12405 12.8022 8.12486 12.8024 8.12566 12.8025C8.12647 12.8027 8.12728 12.8029 8.12794 12.8029C8.02661 12.8029 7.77365 12.7895 7.66765 12.7805C7.68086 12.7935 7.69574 12.8084 7.71227 12.825C8.04615 13.1596 9.0558 14.1715 10.6677 14.1715C12.3593 14.1715 13.7452 11.8907 13.7452 11.8907C13.7452 11.8907 13.7726 12.6495 13.572 13.1669C14.849 11.8507 14.4183 9.25537 14.4183 9.25537C14.4183 9.25537 14.8262 9.74589 14.8962 10.2912C15.1365 9.18426 15.2547 7.97057 14.8044 7.03233C14.8079 7.03214 14.8117 7.03257 14.8155 7.03299C14.8186 7.03334 14.8217 7.03369 14.8246 7.03369C14.9824 7.03945 15.2855 7.23212 15.4353 7.49623C15.6503 6.02384 14.0115 5.08823 12.4685 4.40176C12.5721 4.36385 12.7171 4.32344 12.8871 4.30327C12.9607 4.29458 13.0398 4.29102 13.1228 4.29241C13.2228 4.29415 13.3282 4.30375 13.4372 4.32705C13.3545 4.05534 12.6417 3.07901 11.6774 3.06372C11.6756 3.06372 11.6741 3.06355 11.6726 3.06338C11.671 3.06321 11.6695 3.06304 11.6677 3.06304C11.8754 3.05159 12.0701 3.04752 12.2608 3.04606Z" fill="#2C3A47"/>
</svg>
