<svg width="46" height="42" fill="none" xmlns="http://www.w3.org/2000/svg"><path d="M38.438.945H2.562A2.57 2.57 0 000 3.508V28.3a2.57 2.57 0 002.563 2.563h35.874A2.57 2.57 0 0041 28.3V3.508A2.57 2.57 0 0038.437.945zM2.562 3.508h35.876V7.8H2.562V3.508zM38.438 28.3H2.562V10.362h35.876V28.3z" fill="#0AF"/><path d="M6.407 15.552h23.639a.848.848 0 00.832-.833.848.848 0 00-.832-.833H6.406a.848.848 0 00-.832.833c0 .448.384.833.833.833zm28.315.768c.897 0 1.602-.704 1.602-1.601s-.705-1.602-1.602-1.602c-.897 0-1.601.705-1.601 1.602 0 .897.704 1.601 1.601 1.601zM6.278 25.545a.848.848 0 00.833-.833v-3.395h22.87a.848.848 0 00.833-.833.848.848 0 00-.833-.833H6.278a.848.848 0 00-.833.833v4.164c0 .513.385.897.833.897z" fill="#0AF"/><path d="M34.722 19.587a.848.848 0 00-.833.833v3.396H10.7a.848.848 0 00-.833.832c0 .449.384.833.832.833h24.024a.848.848 0 00.833-.833V20.42a.848.848 0 00-.833-.833z" fill="#0AF"/><path fill="#fff" d="M27 16.333h19v25.333H27z"/><path d="M42.438 26.826V24.61c0-.4-.327-.726-.726-.726-.4 0-.727.327-.727.726v1.598c-.254-.036-.472-.072-.726-.072h-7.554a4.51 4.51 0 00-.727.072V24.03c0-.073 0-.145.036-.254v-.073a4.445 4.445 0 014.468-4.25 4.54 4.54 0 013.959 2.362c.181.363.617.472.98.29.364-.181.473-.617.29-.98A5.965 5.965 0 0036.482 18c-3.159 0-5.738 2.47-5.92 5.63-.036.145-.036.29-.036.435v2.797A3.677 3.677 0 0029 29.84v3.814c0 .145 0 .327.036.508.218 3.995 3.487 7.083 7.446 7.083 3.995 0 7.264-3.124 7.445-7.083.037-.181.037-.363.037-.508V29.84c.036-1.235-.581-2.324-1.526-3.014zm-2.179.762c1.126 0 2.07.836 2.252 1.925-.4-.363-.836-.653-1.38-.835-.255-.073-.509.073-.618.327-.072.254.073.508.327.617.908.29 1.598 1.09 1.707 2.034v2.034c0 .109 0 .218-.036.327v.073a6.144 6.144 0 01-.436 1.997 6.026 6.026 0 01-5.593 3.705 6.063 6.063 0 01-5.593-3.705 5.943 5.943 0 01-.436-1.997v-2.47a2.4 2.4 0 012.397-2.107h5.666a.48.48 0 00.472-.472.48.48 0 00-.472-.472H32.85a3.32 3.32 0 00-2.36.98c.18-1.089 1.125-1.924 2.25-1.924h7.52v-.037z" fill="#0AF"/><path d="M36.99 35.106V33.4a.48.48 0 00-.472-.473.48.48 0 00-.472.473v1.706c-.545.182-.944.727-.944 1.344 0 .8.617 1.417 1.416 1.417.8 0 1.416-.618 1.416-1.417-.036-.653-.435-1.162-.944-1.344z" fill="#0AF"/></svg>