<svg width="43" height="32" fill="none" xmlns="http://www.w3.org/2000/svg"><path d="M13.278 7.545a.848.848 0 00.833-.833V3.317h22.87a.848.848 0 00.833-.833.848.848 0 00-.833-.833H13.278a.848.848 0 00-.833.833v4.164c0 .513.385.897.833.897z" fill="#0AF"/><path d="M41.722 1.588a.848.848 0 00-.833.832v3.396H17.7a.848.848 0 00-.833.832c0 .449.384.833.832.833h24.024a.848.848 0 00.833-.833V2.42a.848.848 0 00-.833-.832zM13.278 31.545a.848.848 0 00.833-.833v-3.395h22.87a.848.848 0 00.833-.833.848.848 0 00-.833-.833H13.278a.848.848 0 00-.833.833v4.164c0 .513.385.897.833.897z" fill="#0AF"/><path d="M41.722 25.587a.848.848 0 00-.833.833v3.396H17.7a.848.848 0 00-.833.832c0 .449.384.833.832.833h24.024a.848.848 0 00.833-.833V26.42a.848.848 0 00-.833-.833zm-28.444-5.042a.848.848 0 00.833-.833v-3.395h22.87a.848.848 0 00.833-.833.848.848 0 00-.833-.832H13.278a.848.848 0 00-.833.832v4.164c0 .513.385.897.833.897z" fill="#0AF"/><path d="M41.722 14.588a.848.848 0 00-.833.832v3.396H17.7a.848.848 0 00-.833.832c0 .449.384.833.832.833h24.024a.848.848 0 00.833-.833V15.42a.848.848 0 00-.833-.832z" fill="#0AF"/><path d="M1 6l3 2.5 5-7" stroke="#0AF" stroke-width="2" stroke-linecap="round" stroke-linejoin="round"/><rect x="3" y="16" width="3" height="3" rx="1.5" fill="#0AF"/><rect x="3" y="27" width="3" height="3" rx="1.5" fill="#0AF"/></svg>