<svg width="40" height="40" fill="none" xmlns="http://www.w3.org/2000/svg"><path d="M27.25 0h-14.5C5.75 0 0 5.75 0 12.75v14.438C0 34.25 5.75 40 12.75 40h14.438C34.25 40 40 34.25 40 27.25v-14.5C40 5.75 34.25 0 27.25 0zM37.5 27.25c0 5.625-4.625 10.25-10.25 10.25h-14.5C7.125 37.5 2.5 32.875 2.5 27.25v-14.5C2.5 7.125 7.125 2.5 12.75 2.5h14.438C32.874 2.5 37.5 7.125 37.5 12.75v14.5z" fill="#0AF"/><path d="M5.125 23.188a.827.827 0 00.813-.813v-9.938c0-3.562 2.937-6.5 6.5-6.5H27.5c1.5 0 3 .563 4.188 1.5.375.313.875.25 1.187-.125.313-.375.25-.875-.125-1.187-1.5-1.25-3.313-1.938-5.25-1.938H12.437c-4.5 0-8.187 3.688-8.187 8.188v9.875c.063.563.438.938.875.938zM34 11.813v15.75c0 3.562-2.938 6.5-6.5 6.5H12.437c-3.562 0-6.5-2.938-6.5-6.5a.827.827 0 00-.812-.813.827.827 0 00-.813.813c0 4.5 3.688 8.187 8.188 8.187h15.062c4.5 0 8.187-3.688 8.187-8.188v-15.75a.827.827 0 00-.812-.812c-.563-.063-.938.313-.938.813z" fill="#0AF"/><path d="M21.428 24.286v-3.572m-2.857 3.572V10h2.857v7.143" stroke="#0AF" stroke-width="1.429" stroke-linecap="round" stroke-linejoin="round"/><path d="M20 30.413l-5.711-5.77H25.71L20 30.413z" stroke="#0AF" stroke-width="1.429"/></svg>