<svg width="20" height="20" viewBox="0 0 20 20" fill="none" xmlns="http://www.w3.org/2000/svg">
<path d="M16.3385 15.0841C16.1194 15.0307 15.926 14.9024 15.7917 14.7213C15.6574 14.5402 15.5907 14.3178 15.6032 14.0927C15.5819 13.7637 15.4429 13.4533 15.2115 13.2185C15.4274 12.5242 15.4274 11.7807 15.2115 11.0864C14.8947 10.1482 13.7892 8.62879 13.0005 7.48281C12.2115 6.33682 12.8931 5.02559 12.1041 3.35165C11.315 1.67812 9.42088 1.7847 8.3476 2.46139C7.27433 3.1389 7.65522 4.99378 7.69818 5.83034C7.74816 6.38844 7.73013 6.95054 7.64448 7.50429C7.53707 7.71209 6.85543 8.49577 6.43736 9.17782C6.01846 9.86029 5.64831 11.2145 5.33186 11.7899C5.23867 11.9555 5.18098 12.1386 5.16249 12.3277C5.144 12.5167 5.1651 12.7076 5.22445 12.888C5.127 12.9345 5.0398 12.9999 4.96795 13.0805C4.89609 13.1611 4.84102 13.2552 4.80596 13.3573C4.65022 13.725 4.26891 13.8902 3.64676 14.034C3.0242 14.1782 3.01345 14.5669 3.17457 15.0255C3.33568 15.484 3.17457 15.7026 3.01882 16.2785C2.86308 16.8539 3.70047 17.0084 4.54322 17.115C5.38556 17.2216 6.32995 17.7442 7.11858 17.8454C7.33134 17.89 7.55291 17.8617 7.7476 17.765C7.9423 17.6683 8.09879 17.5089 8.19186 17.3125C8.7969 17.1813 9.41365 17.1117 10.0327 17.1047C10.652 17.1117 11.2687 17.1811 11.8735 17.3125C11.9648 17.5502 12.1304 17.752 12.3457 17.8879C12.5902 17.9939 12.8604 18.0256 13.1228 17.9792C13.3852 17.9327 13.6281 17.8102 13.8214 17.6269C14.549 17.0729 15.3228 16.5826 16.1344 16.1611C16.9123 15.8145 16.757 15.2386 16.3385 15.0841ZM10.4942 4.10848C10.7217 4.13184 10.9313 4.24279 11.0786 4.41787C11.2258 4.59296 11.2992 4.81845 11.2832 5.04666C11.2919 5.21047 11.2579 5.37374 11.1846 5.52046C11.1112 5.66718 11.001 5.79233 10.8647 5.88364C10.811 5.83034 10.709 5.83034 10.6553 5.77705C10.8288 5.68617 10.9321 5.50233 10.918 5.30817C10.9304 5.24522 10.9291 5.18033 10.9142 5.11794C10.8992 5.05555 10.8709 4.99714 10.8313 4.94669C10.7914 4.89603 10.7412 4.85449 10.684 4.82484C10.6268 4.7952 10.5639 4.77815 10.4995 4.77483C10.3789 4.80149 10.2712 4.86918 10.1949 4.96637C10.1185 5.06356 10.0783 5.18421 10.081 5.30775C10.0728 5.41558 10.0914 5.52381 10.1347 5.62255C10.0075 5.58075 9.88377 5.52909 9.76459 5.46804C9.69848 5.33902 9.66179 5.19694 9.65718 5.05203C9.66886 4.82311 9.75809 4.60497 9.9102 4.43349C10.0623 4.262 10.2683 4.14739 10.4942 4.10848ZM10.4404 6.0968C10.6553 6.14514 10.918 6.2889 10.8647 6.45952C10.811 6.63014 10.709 6.61402 10.4458 6.7739C10.0998 7.00774 9.72908 7.20267 9.34032 7.35515C9.1463 7.3339 8.96126 7.2621 8.80368 7.14694C8.59465 6.99244 8.17038 6.67806 8.26704 6.51818C8.26704 6.51818 8.5839 6.25668 8.73924 6.15051C8.92398 5.94542 9.17105 5.80679 9.44236 5.75598C9.78277 5.84356 10.1166 5.95593 10.4404 6.09143V6.0968ZM8.55168 4.2634C8.74634 4.3114 8.91731 4.42765 9.03352 4.59102C9.14973 4.75439 9.20348 4.95403 9.18499 5.15366V5.41475C9.08703 5.44639 8.9972 5.49913 8.92183 5.56926L8.81442 5.67584C8.85821 5.55851 8.87639 5.43293 8.86813 5.30817C8.86884 5.25326 8.85849 5.19878 8.8377 5.14796C8.8169 5.09714 8.78608 5.05103 8.74708 5.01238C8.70805 4.97351 8.66161 4.94288 8.61051 4.92231C8.55942 4.90173 8.50472 4.89161 8.44964 4.89257C8.35773 4.94514 8.2836 5.02393 8.23672 5.11886C8.18984 5.2138 8.17235 5.32056 8.18649 5.42549C8.18583 5.48033 8.19621 5.53473 8.217 5.58548C8.23779 5.63622 8.26858 5.68226 8.30753 5.72087C8.38643 5.79936 8.49343 5.84274 8.60497 5.84109H8.65868C8.58461 5.92591 8.49554 5.99635 8.39594 6.04888C8.25594 5.96367 8.14224 5.84139 8.06743 5.69557C7.99263 5.54975 7.95962 5.38607 7.97208 5.22265C7.91838 4.68973 8.18112 4.2634 8.55168 4.2634ZM7.86467 16.8056C7.77241 17.0571 7.60819 17.2759 7.39248 17.4348C7.02233 17.5413 5.97012 17.12 5.49793 16.9018C5.02574 16.6829 3.81283 16.6403 3.6575 16.4858C3.50176 16.3313 3.76491 15.91 3.81283 15.5476C3.86117 15.1849 3.70542 14.9185 3.75913 14.6574C3.81283 14.3963 4.60188 14.3963 4.91833 14.2418C5.23519 14.0869 5.28889 13.5643 5.49793 13.4048C5.70738 13.2449 6.17957 13.751 6.34069 14.0389C6.68307 14.6583 7.07051 15.2516 7.49989 15.8141C7.63679 15.9372 7.74157 16.0919 7.80514 16.2646C7.86871 16.4374 7.88915 16.6231 7.86467 16.8056ZM12.2867 13.3569C12.233 13.7246 12.233 14.9557 12.233 14.9557C11.7404 15.5775 11.0552 16.0182 10.2851 16.2086C9.69436 16.3078 9.09328 16.3255 8.49798 16.2619L7.76263 15.4782C7.89687 15.4627 8.02022 15.3969 8.10785 15.294C8.19547 15.1911 8.24084 15.0588 8.23482 14.9238C8.18112 14.3909 6.65713 13.6713 6.34069 13.0421C6.23591 12.6576 6.20993 12.2559 6.26431 11.8611C6.31869 11.4663 6.45231 11.0866 6.65713 10.7448C7.0277 10.2118 7.23673 9.01794 7.60152 8.61268C7.78981 8.39526 7.9294 8.14007 8.01091 7.86425C8.09243 7.58842 8.11398 7.29835 8.07412 7.01351C8.07412 7.01351 8.80947 7.90377 9.33495 7.74348C9.86084 7.58361 11.0205 6.7202 11.2349 6.82141C11.4497 6.92262 12.92 10.2172 13.0753 11.262C13.1718 11.8719 13.1352 12.4956 12.9679 13.09C12.9679 13.09 12.335 12.9942 12.2862 13.3569H12.2867ZM16.1286 15.6538C15.9196 15.862 14.6051 16.3846 14.2345 16.8056C13.8643 17.227 13.3385 17.536 13.0274 17.4348C12.8238 17.3325 12.6669 17.1562 12.5891 16.9421C12.5112 16.728 12.5181 16.4922 12.6085 16.283C12.7675 15.7397 12.8382 15.175 12.8179 14.6095C12.7634 14.2812 12.7634 13.9462 12.8179 13.618C12.9014 13.5837 12.9906 13.5655 13.0807 13.5643C13.0807 13.5643 13.027 14.2951 13.4512 14.5029C13.6657 14.5755 13.8956 14.5895 14.1173 14.5436C14.339 14.4977 14.5445 14.3935 14.7125 14.2418C14.8434 14.098 14.9471 13.932 15.0182 13.751C15.0855 13.7944 15.1369 13.8582 15.165 13.9332C15.1931 14.0081 15.1962 14.0901 15.1739 14.167C15.1707 14.3376 15.2067 14.5066 15.2793 14.661C15.3519 14.8154 15.459 14.951 15.5924 15.0573C15.9146 15.2382 16.3385 15.4464 16.1237 15.6596L16.129 15.6542L16.1286 15.6538Z" fill="#2C3A47"/>
</svg>
