<svg width="20" height="20" viewBox="0 0 20 20" fill="none" xmlns="http://www.w3.org/2000/svg">
<path fill-rule="evenodd" clip-rule="evenodd" d="M14.3092 13.1806C13.8593 12.9613 11.7174 8.15363 11.2014 6.87909C11.0811 6.58206 10.8964 6.17427 10.6905 5.71995L10.6905 5.71993C10.0131 4.22482 9.10731 2.22583 9.52145 2.01214C9.78852 1.86135 10.5349 3.14004 11.3075 4.46386L11.3075 4.46389L11.3076 4.46391L11.3077 4.46414C11.6285 5.01379 11.9539 5.57121 12.2513 6.0373C12.9965 7.20491 14.3477 9.71412 15.1212 11.1506L15.1213 11.1507C15.4002 11.6687 15.604 12.0472 15.6772 12.1729C15.9532 12.6471 15.4012 13.0206 15.1432 13.1273C14.8922 13.3088 14.5573 13.3296 14.2852 13.1806H14.3092ZM4.43267 15.8483L3.35871 15.2555C3.26753 15.2088 3.19906 15.128 3.16862 15.031C3.13818 14.9341 3.1483 14.8292 3.19672 14.7397L8.12851 6.29813C8.17564 6.20481 8.25959 6.13477 8.36061 6.10449C8.46163 6.07421 8.57081 6.08636 8.66248 6.13808L9.73644 6.73088C9.83089 6.77746 9.90178 6.8604 9.93242 6.96021C9.96307 7.06003 9.95077 7.1679 9.89843 7.25848L4.96664 15.7178C4.85155 15.8959 4.62195 15.9639 4.42667 15.8779L4.43267 15.8483ZM1.00111 9.36879V11.7756C0.992222 11.8899 1.03693 12.0019 1.1224 12.0794C1.20786 12.1569 1.32462 12.1913 1.43909 12.1728H3.83899L5.71691 8.9479H1.4271C1.31363 8.94628 1.20432 8.99011 1.12408 9.06939C1.04384 9.14868 0.999481 9.25668 1.00111 9.36879ZM2.66242 17.6265L4.05436 16.6958V16.7254C4.27035 16.6187 4.27035 16.4053 4.00036 16.2571L2.9264 15.6643C2.85034 15.6145 2.75228 15.6117 2.67338 15.657C2.59447 15.7022 2.54837 15.7878 2.55442 15.8777L2.39243 17.4665C2.33843 17.7036 2.50042 17.7036 2.66242 17.6265ZM10.0791 8.99535L8.20117 12.2261H12.653L11.153 8.99535H10.0791ZM15.0583 14.3959L15.7003 15.4037H15.6763C15.8242 15.5984 16.0919 15.6608 16.3123 15.5519L16.7383 15.2851C16.9427 15.1417 17.0114 14.8728 16.9003 14.6508L16.4203 13.6964C16.3695 13.5893 16.2777 13.5066 16.1652 13.4665C16.0526 13.4265 15.9285 13.4324 15.8203 13.483L15.2203 13.8031C15.1177 13.859 15.0426 13.9537 15.012 14.0655C14.9815 14.1773 14.9982 14.2965 15.0583 14.3959ZM18.059 18C18.0532 17.9849 18.0463 17.9704 18.0383 17.9562C18.0675 17.5958 18.2406 14.8062 16.5051 15.7829C16.3409 15.9179 16.2416 16.1147 16.2314 16.3254C16.2211 16.5362 16.3008 16.7415 16.4511 16.8915C16.6685 17.2295 17.065 17.4026 17.4124 17.5542C17.6934 17.6769 17.9423 17.7855 18.0383 17.9562C18.0363 17.9808 18.035 17.9941 18.035 17.9941L18.059 18ZM18.8767 12.075C18.9569 11.9957 19.0013 11.8877 18.9996 11.7756V9.40439C18.9983 9.29003 18.9492 9.1813 18.864 9.10387C18.7788 9.02644 18.6651 8.98718 18.5496 8.99535H14.7998C15.2025 9.70631 15.5861 10.422 15.8514 10.9172C15.8825 10.9753 15.912 11.0304 15.9398 11.082C16.0598 11.3545 16.1799 11.5716 16.256 11.7091C16.2826 11.7571 16.3038 11.7954 16.3177 11.823C16.3785 11.9392 16.4152 12.0662 16.4257 12.1965H18.5736C18.6871 12.1981 18.7964 12.1543 18.8767 12.075Z" fill="#2C3A47"/>
</svg>
