<svg width="20" height="20" viewBox="0 0 20 20" fill="none" xmlns="http://www.w3.org/2000/svg">
<path fill-rule="evenodd" clip-rule="evenodd" d="M5.87441 10.1875C5.91191 11.9189 6.48069 13.4627 7.36825 14.5065C8.51207 16.0004 10.2747 16.6192 12.1748 16.6129C13.3499 16.6129 14.3937 16.5879 15.3312 15.9629C13.9186 17.2317 12.0498 18.0005 9.99965 18.0005C9.87465 18.0005 9.74339 18.0005 9.61838 17.9942C5.37438 17.7942 1.99918 14.2878 1.99918 10C1.99918 5.58101 5.58064 1.99954 9.99965 1.99954H10.0309C12.0685 2.00579 13.9249 2.77459 15.3312 4.04341C14.3937 3.41838 13.2874 3.33712 12.1123 3.33712C10.2059 3.33712 8.51832 4.00591 7.36825 5.4935C6.48694 6.53731 5.91191 8.08116 5.87441 9.81251V10.1875ZM10.0872 4.82475C9.04967 4.82475 8.09961 5.34353 7.36832 6.21233C8.51214 4.7185 10.2185 3.77469 12.1249 3.77469C13.2999 3.77469 14.2379 4.03539 15.3313 4.756C17.25 6.0205 17.9604 7.84823 17.9604 10.0064C17.9604 12.3753 17.1509 13.8279 15.3313 15.0635C14.2479 15.7991 13.2937 16.0448 12.1249 16.0448C10.2247 16.0448 8.51839 15.0947 7.36832 13.6072C8.10586 14.4697 9.04967 14.9947 10.0872 14.9947C12.4186 14.9947 14.3062 13.2691 14.3062 10.0064C14.3062 6.7437 12.4186 4.82475 10.0872 4.82475Z" fill="#2C3A47"/>
</svg>
