<svg width="24" height="24" viewBox="0 0 24 24" fill="none" xmlns="http://www.w3.org/2000/svg">
<path d="M23.95 2.5L20.204 21.626C20.204 21.626 20.043 22.5 18.959 22.5C18.383 22.5 18.086 22.226 18.086 22.226L9.972 15.493L6.002 13.492L0.907 12.137C0.907 12.137 0 11.875 0 11.125C0 10.5 0.933 10.202 0.933 10.202L22.249 1.734C22.249 1.734 22.9 1.499 23.375 1.5C23.667 1.5 24 1.625 24 2C24 2.25 23.95 2.5 23.95 2.5Z" fill="#98A5AC"/>
<path d="M12.9998 18.005L9.57384 21.379C9.57384 21.379 9.42484 21.494 9.22584 21.499C9.15684 21.501 9.08284 21.49 9.00684 21.456L9.97084 15.491L12.9998 18.005Z" fill="#7D888D"/>
<path d="M19.897 5.69601C19.728 5.47601 19.416 5.43602 19.196 5.60302L6 13.5C6 13.5 8.106 19.392 8.427 20.412C8.749 21.433 9.007 21.457 9.007 21.457L9.971 15.492L19.803 6.39602C20.023 6.22902 20.064 5.91601 19.897 5.69601Z" fill="#7D888D"/>
</svg>
